<svg width="100" height="100" viewBox="0 0 100 100" fill="none" xmlns="http://www.w3.org/2000/svg">
<circle cx="50" cy="50" r="50" fill="url(#paint0_linear_3_6)"/>
<path d="M59 28.7C56.75 28.7 54.95 30.5 54.95 32.75C54.95 35 56.75 36.8 59 36.8C61.25 36.8 63.05 35 63.05 32.75C63.05 30.5 61.25 28.7 59 28.7ZM50.9 35.225C49.8425 35.225 48.875 35.6525 48.2 36.35L39.875 44.6525C39.1775 45.35 38.75 46.25 38.75 47.375C38.75 48.7925 39.4925 49.985 40.6625 50.6825L48.2 55.25V66.5H52.25V51.875L47.1875 48.1625L52.4075 42.875L56.3 48.5H65.75V44.45H58.55L54.185 37.0925C53.5325 35.9675 52.25 35.225 50.9 35.225ZM45.5 32.75H29.75C28.5125 32.75 27.5 31.7375 27.5 30.5C27.5 29.2625 28.5125 28.25 29.75 28.25H51.7775C51.305 29.015 50.9225 29.8475 50.72 30.7475C48.785 30.7925 46.9625 31.5125 45.5 32.75ZM34.25 53C28.04 53 23 58.04 23 64.25C23 70.46 28.04 75.5 34.25 75.5C40.46 75.5 45.5 70.46 45.5 64.25C45.5 58.04 40.46 53 34.25 53ZM34.25 72.125C29.9075 72.125 26.375 68.5925 26.375 64.25C26.375 59.9075 29.9075 56.375 34.25 56.375C38.5925 56.375 42.125 59.9075 42.125 64.25C42.125 68.5925 38.5925 72.125 34.25 72.125ZM65.75 53C59.54 53 54.5 58.04 54.5 64.25C54.5 70.46 59.54 75.5 65.75 75.5C71.96 75.5 77 70.46 77 64.25C77 58.04 71.96 53 65.75 53ZM65.75 72.125C61.4075 72.125 57.875 68.5925 57.875 64.25C57.875 59.9075 61.4075 56.375 65.75 56.375C70.0925 56.375 73.625 59.9075 73.625 64.25C73.625 68.5925 70.0925 72.125 65.75 72.125ZM34.97 50.75H25.25C24.008 50.75 23 49.7375 23 48.5C23 47.2625 24.008 46.25 25.25 46.25H34.3625C34.3175 46.61 34.25 46.9925 34.25 47.375C34.25 48.5675 34.52 49.715 34.97 50.75ZM36.5 41.75H27.5C26.2625 41.75 25.25 40.7375 25.25 39.5C25.25 38.2625 26.2625 37.25 27.5 37.25H40.9325L36.7025 41.4575C36.6125 41.5475 36.5 41.66 36.5 41.75Z" fill="white"/>
<defs>
<linearGradient id="paint0_linear_3_6" x1="50" y1="0" x2="50" y2="100" gradientUnits="userSpaceOnUse">
<stop stop-color="#E11E3B"/>
<stop offset="1" stop-color="#F59819"/>
</linearGradient>
</defs>
</svg>
