<svg width="46" height="46" viewBox="0 0 46 46" fill="none" xmlns="http://www.w3.org/2000/svg">
<circle cx="23" cy="23" r="23" fill="url(#paint0_linear_0_25)"/>
<path fill-rule="evenodd" clip-rule="evenodd" d="M32.174 23H29.75C29.5511 23 29.3603 23.079 29.2196 23.2197C29.079 23.3603 29 23.5511 29 23.75V29.75C29 29.9489 29.079 30.1397 29.2196 30.2803C29.3603 30.421 29.5511 30.5 29.75 30.5H32.75C32.9255 30.5001 33.0955 30.4385 33.2304 30.3262C33.3652 30.2138 33.4564 30.0577 33.488 29.885C34.0025 27.0575 34.1285 22.7825 32.777 19.175C32.0975 17.36 31.031 15.68 29.4215 14.4575C27.8045 13.2275 25.6925 12.5 23 12.5C20.306 12.5 18.194 13.229 16.577 14.4575C14.9675 15.6815 13.901 17.3585 13.2215 19.175C11.87 22.7825 11.9975 27.0575 12.5105 29.885C12.5421 30.0577 12.6332 30.2138 12.7681 30.3262C12.9029 30.4385 13.0729 30.5001 13.2485 30.5H14.6675C16.886 33.107 20.237 33.662 22.2785 33.5H23.75C23.9489 33.5 24.1396 33.421 24.2803 33.2803C24.4209 33.1397 24.5 32.9489 24.5 32.75V31.25C24.5 31.0511 24.4209 30.8603 24.2803 30.7197C24.1396 30.579 23.9489 30.5 23.75 30.5H22.25C22.0511 30.5 21.8603 30.579 21.7196 30.7197C21.579 30.8603 21.5 31.0511 21.5 31.25V32.0255C20.054 32.0075 18.179 31.583 16.6745 30.368C16.7748 30.2991 16.8568 30.2069 16.9136 30.0992C16.9703 29.9915 16.9999 29.8717 17 29.75V23.75C17 23.5511 16.921 23.3603 16.7803 23.2197C16.6396 23.079 16.4489 23 16.25 23H13.8275C13.9775 21.872 14.234 20.75 14.627 19.7C15.2345 18.08 16.157 16.6625 17.4875 15.6515C18.809 14.6465 20.591 14 23 14C25.409 14 27.1895 14.645 28.514 15.6515C29.8445 16.6625 30.764 18.0785 31.373 19.7015C31.7639 20.7672 32.0326 21.8737 32.174 23Z" fill="white"/>
<defs>
<linearGradient id="paint0_linear_0_25" x1="23" y1="0" x2="23" y2="46" gradientUnits="userSpaceOnUse">
<stop stop-color="#E11E3B"/>
<stop offset="1" stop-color="#FF9D00"/>
</linearGradient>
</defs>
</svg>
