<svg width="42" height="42" viewBox="0 0 42 42" fill="none" xmlns="http://www.w3.org/2000/svg">
<circle cx="21" cy="21" r="21" fill="url(#paint0_linear_0_237)"/>
<path fill-rule="evenodd" clip-rule="evenodd" d="M18.8578 18.4742H21.9528V20.0158C22.3987 19.1292 23.542 18.3325 25.2595 18.3325C28.552 18.3325 29.3337 20.0975 29.3337 23.3358V29.3333H26.0003V24.0733C26.0003 22.2292 25.5545 21.1892 24.4195 21.1892C22.8453 21.1892 22.1912 22.31 22.1912 24.0725V29.3333H18.8578V18.4742ZM13.142 29.1917H16.4753V18.3325H13.142V29.1917ZM16.9528 14.7917C16.9529 15.0711 16.8975 15.3477 16.7898 15.6055C16.6821 15.8633 16.5242 16.0971 16.3253 16.2933C16.1259 16.4918 15.8892 16.6489 15.629 16.7559C15.3688 16.8628 15.09 16.9175 14.8087 16.9167C14.2417 16.9154 13.6978 16.6919 13.2937 16.2942C13.0956 16.0972 12.9383 15.8631 12.8307 15.6053C12.7232 15.3475 12.6676 15.071 12.667 14.7917C12.667 14.2275 12.892 13.6875 13.2945 13.2892C13.6976 12.8899 14.2421 12.6661 14.8095 12.6667C15.3778 12.6667 15.9228 12.8908 16.3253 13.2892C16.7278 13.6875 16.9528 14.2275 16.9528 14.7917Z" fill="white"/>
<defs>
<linearGradient id="paint0_linear_0_237" x1="21" y1="0" x2="21" y2="42" gradientUnits="userSpaceOnUse">
<stop stop-color="#E11E3B"/>
<stop offset="1" stop-color="#F69F17"/>
</linearGradient>
</defs>
</svg>
