<svg width="100" height="100" viewBox="0 0 100 100" fill="none" xmlns="http://www.w3.org/2000/svg">
<circle cx="50" cy="50" r="50" fill="url(#paint0_linear_25_25)"/>
<path d="M50.262 26.5238C51.0305 26.5238 51.7873 26.5737 52.4913 26.691C53.1849 26.7804 53.8691 26.9316 54.5358 27.1428C55.2007 27.3422 55.8597 27.5994 56.5129 27.9142C57.1494 28.2164 57.8035 28.586 58.4577 28.9878C59.5635 29.6918 60.6518 30.2609 61.7606 30.7156C63.9428 31.591 66.2513 32.1109 68.5981 32.2555C69.7852 32.3435 71.0142 32.3885 72.2853 32.3905V44.1238C72.2853 46.3511 72.0008 48.469 71.4317 50.4773C70.885 52.4608 70.1083 54.3736 69.1173 56.1768C68.1307 57.9774 66.9631 59.6729 65.6326 61.2367C64.2825 62.8369 62.8199 64.3387 61.2561 65.7306C59.6701 67.1249 58.002 68.4227 56.2606 69.6172C54.5163 70.8297 52.7621 71.9473 50.9982 72.97L50.2942 73.3895L49.5902 72.97C47.7808 71.9228 46.0136 70.8043 44.2927 69.6172C42.542 68.4356 40.873 67.1371 39.2972 65.7306C37.7344 64.3386 36.2728 62.8368 34.9237 61.2367C33.5977 59.6655 32.4249 57.9711 31.4213 56.1768C30.4482 54.3652 29.6723 52.4544 29.1069 50.4773C28.538 48.4078 28.2557 46.27 28.268 44.1238V32.3905C29.5391 32.3885 30.7691 32.3435 31.9581 32.2555C33.1306 32.1758 34.2955 32.0082 35.4429 31.7539C36.5663 31.5017 37.6898 31.1673 38.7956 30.7156C39.9429 30.2518 41.043 29.6792 42.081 29.0054C43.3716 28.1665 44.6799 27.5476 45.9705 27.1398C47.3606 26.7142 48.8083 26.5064 50.262 26.5238ZM69.3344 35.2739C67.1141 35.1653 64.9144 34.7941 62.7814 34.1681C60.6604 33.5337 58.6398 32.6025 56.7798 31.4019C55.8147 30.7701 54.7676 30.2737 53.6676 29.9265C52.5681 29.5949 51.425 29.4308 50.2766 29.4396C49.1198 29.4325 47.9682 29.5966 46.8593 29.9265C45.758 30.2633 44.7123 30.7605 43.7559 31.4019C41.892 32.6078 39.8664 33.5431 37.7396 34.1798C35.6609 34.7841 33.4814 35.1537 31.2013 35.2886V44.1384C31.2013 46.0803 31.4535 47.9459 31.9581 49.7352C32.4725 51.5117 33.1808 53.2263 34.0701 54.848C34.9704 56.4864 36.0316 58.031 37.238 59.4591C38.4612 60.8994 39.7666 62.2399 41.1746 63.513C42.5826 64.786 44.058 65.9652 45.6009 67.0506C47.1595 68.1378 48.7181 69.1322 50.2766 70.0338C51.8723 69.1065 53.4274 68.1112 54.9377 67.0506C56.4927 65.9682 57.9761 64.7866 59.3787 63.513C60.7867 62.2399 62.095 60.8994 63.3182 59.4591C64.5246 58.031 65.5858 56.4864 66.4862 54.848C67.371 53.2281 68.0687 51.5128 68.5659 49.7352C69.0863 47.9155 69.3451 46.031 69.3344 44.1384V35.2739Z" fill="white"/>
<path fill-rule="evenodd" clip-rule="evenodd" d="M61.1977 40.3368L59.9071 39.228L58.7161 39.3307L45.9269 54.4314L41.5709 48.2128L40.3976 48.0133L39.0394 48.9842L38.837 50.1576L44.4367 58.1538L45.0733 58.5058L46.4138 58.5879L47.1002 58.2887L61.2828 41.5248L61.1977 40.3368Z" fill="white"/>
<defs>
<linearGradient id="paint0_linear_25_25" x1="50" y1="0" x2="50" y2="100" gradientUnits="userSpaceOnUse">
<stop stop-color="#E11E3B"/>
<stop offset="1" stop-color="#F59819"/>
</linearGradient>
</defs>
</svg>
