<svg width="100" height="100" viewBox="0 0 100 100" fill="none" xmlns="http://www.w3.org/2000/svg">
<circle cx="50" cy="50" r="50" fill="url(#paint0_linear_25_23)"/>
<path d="M65.7498 43.25C65.7498 45.3183 65.3424 47.3664 64.5509 49.2773C63.7593 51.1881 62.5992 52.9244 61.1367 54.3869C59.6742 55.8495 57.9379 57.0096 56.027 57.8011C54.1161 58.5926 52.0681 59 49.9998 59C47.9314 59 45.8834 58.5926 43.9725 57.8011C42.0616 57.0096 40.3253 55.8495 38.8628 54.3869C37.4003 52.9244 36.2402 51.1881 35.4487 49.2773C34.6571 47.3664 34.2498 45.3183 34.2498 43.25C34.2498 39.0728 35.9091 35.0668 38.8628 32.1131C41.8165 29.1594 45.8226 27.5 49.9998 27.5C54.1769 27.5 58.183 29.1594 61.1367 32.1131C64.0904 35.0668 65.7498 39.0728 65.7498 43.25Z" stroke="white" stroke-width="4" stroke-linecap="round" stroke-linejoin="round"/>
<path d="M40.9998 56.75V69.1542C40.9998 71.1207 40.9998 72.1062 41.6208 72.4167C42.244 72.7295 43.0293 72.14 44.5998 70.9587L47.2998 68.9292C48.6003 67.9505 49.2505 67.4622 49.9998 67.4622C50.749 67.4622 51.3993 67.9505 52.6998 68.9292L55.3998 70.9587C56.9703 72.1377 57.7555 72.7295 58.3788 72.4167C58.9998 72.1062 58.9998 71.1207 58.9998 69.1542V56.75M49.255 34.727C49.321 34.585 49.4261 34.4649 49.5581 34.3807C49.69 34.2966 49.8432 34.2518 49.9998 34.2518C50.1563 34.2518 50.3095 34.2966 50.4415 34.3807C50.5734 34.4649 50.6785 34.585 50.7445 34.727L52.576 38.48C52.6975 38.7275 52.9248 38.9007 53.1903 38.9457L57.1683 39.6072C57.8433 39.7197 58.1133 40.5837 57.6295 41.0877L54.781 44.0712C54.6873 44.1708 54.6175 44.2905 54.577 44.4211C54.5364 44.5517 54.5262 44.6898 54.547 44.825L55.1748 48.9875C55.2805 49.694 54.5763 50.2272 53.9688 49.9032L50.38 47.993C50.2629 47.9307 50.1324 47.8982 49.9998 47.8982C49.8672 47.8982 49.7366 47.9307 49.6195 47.993L46.0308 49.9032C45.4233 50.2272 44.719 49.694 44.8248 48.9875L45.4525 44.825C45.4733 44.6898 45.4631 44.5517 45.4225 44.4211C45.382 44.2905 45.3122 44.1708 45.2185 44.0712L42.37 41.09C41.8885 40.586 42.1563 39.722 42.8313 39.6095L46.8093 38.948C46.9416 38.9256 47.0666 38.8716 47.1735 38.7905C47.2805 38.7094 47.3662 38.6036 47.4235 38.4822L49.255 34.727Z" stroke="white" stroke-width="4" stroke-linecap="round" stroke-linejoin="round"/>
<defs>
<linearGradient id="paint0_linear_25_23" x1="50" y1="0" x2="50" y2="100" gradientUnits="userSpaceOnUse">
<stop stop-color="#E11E3B"/>
<stop offset="1" stop-color="#F59819"/>
</linearGradient>
</defs>
</svg>
