<svg width="38" height="38" viewBox="0 0 38 38" fill="none" xmlns="http://www.w3.org/2000/svg">
<path fill-rule="evenodd" clip-rule="evenodd" d="M24.852 14.6964C25.1535 14.9887 25.3265 15.3888 25.3331 15.8086C25.3396 16.2285 25.1791 16.6338 24.8868 16.9353L18.506 23.5203C18.3332 23.6992 18.1262 23.8414 17.8973 23.9386C17.6684 24.0357 17.4223 24.0858 17.1736 24.0858C16.925 24.0858 16.6788 24.0357 16.4499 23.9386C16.221 23.8414 16.014 23.6992 15.8412 23.5203L13.1132 20.7052C12.9666 20.5563 12.8509 20.3798 12.7728 20.186C12.6947 19.9922 12.6558 19.7848 12.6582 19.5759C12.6607 19.3669 12.7045 19.1605 12.787 18.9686C12.8696 18.7766 12.9894 18.6029 13.1394 18.4575C13.2895 18.3121 13.4668 18.1978 13.6612 18.1212C13.8556 18.0446 14.0633 18.0073 14.2722 18.0113C14.4811 18.0154 14.6872 18.0608 14.8785 18.1448C15.0698 18.2289 15.2426 18.35 15.3868 18.5012L17.1728 20.3442L22.6132 14.7313C22.9054 14.4298 23.3055 14.2567 23.7254 14.2502C24.1452 14.2437 24.5505 14.4042 24.852 14.6964Z" fill="#E11E3B"/>
<path fill-rule="evenodd" clip-rule="evenodd" d="M17.5132 3.73662C18.477 3.4068 19.523 3.4068 20.4867 3.73662L29.7587 6.89695C30.74 7.23247 31.5795 7.88923 32.1412 8.761C32.7029 9.63276 32.9541 10.6685 32.8542 11.7008L31.654 24.0381C31.591 24.6929 31.3881 25.3266 31.0589 25.8962C30.7297 26.4657 30.282 26.9579 29.7461 27.3394L21.6426 33.1296C20.8725 33.6793 19.9518 33.9787 19.0057 33.9869C18.0595 33.9951 17.1338 33.7118 16.3542 33.1755L8.31566 27.6418C7.76164 27.2605 7.2978 26.7626 6.95671 26.183C6.61562 25.6034 6.40555 24.9562 6.34125 24.2867L5.13791 11.6945C5.03964 10.6628 5.292 9.62822 5.85424 8.75771C6.41648 7.88721 7.25575 7.23166 8.2365 6.89695L17.5132 3.73662ZM19.5573 6.45995C19.1958 6.33785 18.8042 6.33785 18.4427 6.45995L9.16591 9.62345C8.79797 9.74861 8.48304 9.9943 8.27212 10.3207C8.0612 10.6472 7.96664 11.0352 8.00375 11.4221L9.20866 24.0144C9.25616 24.521 9.5285 24.9834 9.94966 25.2731L17.9867 30.8053C18.5852 31.217 19.38 31.2106 19.9706 30.7895L28.0757 24.9992C28.2755 24.8551 28.4425 24.6702 28.5656 24.4567C28.6887 24.2433 28.7651 24.0062 28.7897 23.761L29.9915 11.4237C30.0294 11.0363 29.9351 10.6475 29.7242 10.3204C29.5132 9.99332 29.1978 9.74715 28.8293 9.62187L19.5573 6.45995Z" fill="#E11E3B"/>
</svg>
