<svg width="100" height="100" viewBox="0 0 100 100" fill="none" xmlns="http://www.w3.org/2000/svg">
<circle cx="50" cy="50" r="50" fill="url(#paint0_linear_25_24)"/>
<path d="M54.505 24.0834C53.3041 24.0904 52.1364 24.4817 51.1704 25.2009C50.2044 25.9201 49.4901 26.93 49.1304 28.0849L46.9556 34.8936C46.7139 35.6671 46.3045 36.3766 45.757 36.9709C44.0972 38.7831 42.7021 40.8244 41.6135 43.0334H39.8455C39.0227 41.8856 37.8321 41.0591 36.4749 40.6937C35.6912 40.4805 34.8017 40.4832 33.7686 40.4832H33.313C32.2826 40.4832 31.3877 40.4832 30.6067 40.6937C29.5725 40.9728 28.6294 41.5214 27.8721 42.2842C27.1148 43.0471 26.57 43.9974 26.2924 45.0396C26.0809 45.8323 26.0836 46.7288 26.0836 47.7729V64.6292C26.0836 65.6678 26.0836 66.5698 26.2924 67.357C26.5694 68.3995 27.1136 69.3501 27.8704 70.1134C28.6272 70.8767 29.57 71.4259 30.604 71.7057C31.3904 71.9189 32.2799 71.9189 33.3157 71.9162H33.7686C34.799 71.9162 35.6939 71.9162 36.4749 71.7057C37.9051 71.3201 39.1474 70.4234 39.9703 69.1829H57.9461C61.5825 69.1829 64.0637 69.0243 66.0379 68.1798C67.737 67.4497 69.215 66.2806 70.3223 64.7905C71.5833 63.1013 72.1663 60.8928 73.0313 57.6237L73.1398 57.2192L75.0136 50.7495L75.0407 50.6675C75.4746 49.2079 75.8352 47.9888 76.044 46.9775C76.2555 45.9416 76.3586 44.8893 76.0847 43.8342C75.6875 42.2806 74.7279 40.9331 73.3947 40.0568C72.4754 39.4582 71.4504 39.2477 70.4173 39.1521C69.4221 39.0591 68.1855 39.0591 66.7185 39.0591H60.4762C61.9215 34.4262 61.4469 30.6788 60.666 28.1888C59.763 25.297 57.0269 24.0834 54.6433 24.0834H54.505ZM41.0007 65.0829V47.7702L40.998 47.1333H44.2032L45.0005 45.3949C45.949 43.3296 47.2116 41.4262 48.7426 39.7534C49.6917 38.7229 50.3995 37.4902 50.8306 36.1482L53 29.3422C53.0958 29.0127 53.2934 28.7227 53.5641 28.5142C53.8348 28.3058 54.1644 28.1898 54.505 28.1833H54.6433C55.8635 28.1833 56.5794 28.7573 56.7882 29.4242C57.4553 31.5535 57.938 35.3008 55.6602 40.2454C55.5162 40.5577 55.4526 40.9016 55.4753 41.2452C55.498 41.5889 55.6062 41.9212 55.79 42.2116C55.9737 42.5019 56.2271 42.741 56.5267 42.9066C56.8263 43.0722 57.1624 43.159 57.5041 43.1591H66.6263C68.2099 43.1591 69.2566 43.1591 70.043 43.2329C70.8159 43.3067 71.0735 43.4297 71.1847 43.5008C71.6484 43.8014 71.9982 44.2852 72.15 44.8674C72.1907 45.0259 72.2232 45.3512 72.0578 46.1521C71.8951 46.9611 71.5833 48.0107 71.1169 49.5796L71.1114 49.5933L69.2187 56.115L69.2133 56.1368C68.1909 59.999 67.795 61.3574 67.071 62.3278C66.3935 63.2407 65.489 63.9573 64.4488 64.4051C63.3397 64.8779 61.6666 65.0829 57.9461 65.0829H41.0007ZM31.6589 44.6515C31.8514 44.5995 32.147 44.5831 33.5408 44.5831C34.9319 44.5831 35.2302 44.5995 35.4227 44.6515C35.7673 44.7447 36.0815 44.9276 36.3337 45.1819C36.586 45.4361 36.7675 45.7528 36.8599 46.1001C36.9142 46.2969 36.9304 46.5976 36.9304 47.9998V64.3996C36.9304 65.8018 36.9142 66.1024 36.8626 66.2965C36.7702 66.6438 36.5887 66.9605 36.3364 67.2148C36.0842 67.469 35.77 67.652 35.4254 67.7452C35.2302 67.7998 34.9319 67.8162 33.5408 67.8162C32.1497 67.8162 31.8514 67.7998 31.6589 67.7452C31.3143 67.652 31.0001 67.469 30.7479 67.2148C30.4956 66.9605 30.3141 66.6438 30.2217 66.2965C30.1674 66.1024 30.1512 65.8045 30.1512 64.3996V47.9998C30.1512 46.5976 30.1702 46.2969 30.2217 46.1029C30.3141 45.7556 30.4956 45.4389 30.7479 45.1846C31.0001 44.9303 31.3143 44.7474 31.6589 44.6542" fill="white"/>
<defs>
<linearGradient id="paint0_linear_25_24" x1="50" y1="0" x2="50" y2="100" gradientUnits="userSpaceOnUse">
<stop stop-color="#E11E3B"/>
<stop offset="1" stop-color="#F59819"/>
</linearGradient>
</defs>
</svg>
